# xmcd CD database file
#
# Track frame offsets:
#	150
#	15467
#	26532
#	40957
#	52622
#	66682
#	78235
#	90427
#	104517
#	125360
#	137200
#	150227
#	159315
#	172267
#	185497
#	205565
#
# Disc length: 3011 seconds
#
# Revision: 0
# Processed by: cddbd v1.5.2PL0 Copyright (c) Steve Scherf et al.
# Submitted via: CDex 1.51
#
DISCID=c60bc110
DTITLE=Boozoo Chavic - Zydeco Hee How
DYEAR=1991
DGENRE=Blues
TTITLE0=01.Boozoo Chavis - Zydeco Hee Haw
TTITLE1=02.Boozoo Chavis - Deacon Jones
TTITLE2=03.Boozoo Chavis - Jonnie Billy Goat
TTITLE3=04.Boozoo Chavis - Boozoo´s Baby
TTITLE4=05.Boozoo Chavis - Pray For Me
TTITLE5=06.Boozoo Chavis - Zydeco Baby (Disco Lady)
TTITLE6=07.Boozoo Chavis - Last Dance Waltz
TTITLE7=08.Boozoo Chavis - Madeleine
TTITLE8=09.Boozoo Chavis - I´m Driftin`
TTITLE9=10.Boozoo Chavis - Keep Your Dress Tail Down
TTITLE10=11.Boozoo Chavis - You Act Seek When Your Man Is Home
TTITLE11=12.Boozoo Chavis - Dancin´sassy One Step
TTITLE12=13.Boozoo Chavis - Sugar Bee
TTITLE13=14.Boozoo Chavis - Bye Bye Jolie
TTITLE14=15.Boozoo Chavis - Harlem Shuffle
TTITLE15=16.Boozoo Chavis - Black Gal
EXTD=YEAR: 1991
EXTT0=
EXTT1=
EXTT2=
EXTT3=
EXTT4=
EXTT5=
EXTT6=
EXTT7=
EXTT8=
EXTT9=
EXTT10=
EXTT11=
EXTT12=
EXTT13=
EXTT14=
EXTT15=
PLAYORDER=
